<svg width="21" height="21" viewBox="0 0 21 21" fill="none" xmlns="http://www.w3.org/2000/svg">
<path d="M14.4133 0H6.54826C2.92925 0 0 2.92925 0 6.54826V14.4133C0 18.0323 2.92925 20.9616 6.54826 20.9616H14.4133C18.0323 20.9616 20.9616 18.0323 20.9616 14.4133V6.54826C20.9616 2.93821 18.0323 0 14.4133 0ZM18.9998 14.4133C18.9998 16.9395 16.9395 18.9998 14.4133 18.9998H6.54826C4.02212 18.9998 1.96179 16.9395 1.96179 14.4133V6.54826C1.96179 4.02212 4.02212 1.96179 6.54826 1.96179H14.4133C16.9395 1.96179 18.9998 4.02212 18.9998 6.54826V14.4133Z" fill="#7A7A7A"/>
<path d="M10.4808 5.24023C7.58734 5.24023 5.24036 7.58722 5.24036 10.4806C5.24036 13.3741 7.58734 15.721 10.4808 15.721C13.3742 15.721 15.7212 13.3741 15.7212 10.4806C15.7212 7.58722 13.3742 5.24023 10.4808 5.24023ZM10.4808 13.7592C8.67125 13.7592 7.20215 12.2901 7.20215 10.4806C7.20215 8.67113 8.67125 7.20203 10.4808 7.20203C12.2903 7.20203 13.7594 8.67113 13.7594 10.4806C13.7594 12.2901 12.2903 13.7592 10.4808 13.7592Z" fill="#7A7A7A"/>
<path d="M16.1153 5.5449C16.5012 5.5449 16.8141 5.23207 16.8141 4.84618C16.8141 4.46029 16.5012 4.14746 16.1153 4.14746C15.7295 4.14746 15.4166 4.46029 15.4166 4.84618C15.4166 5.23207 15.7295 5.5449 16.1153 5.5449Z" fill="#7A7A7A"/>
</svg>
