<svg width="25" height="15" viewBox="0 0 25 15" fill="none" xmlns="http://www.w3.org/2000/svg">
<path d="M21.4535 9.53318C22.2776 10.3182 23.1555 11.0596 23.8901 11.9231C24.2215 12.3068 24.5261 12.7081 24.768 13.1529C25.1084 13.7896 24.8038 14.4874 24.2126 14.5223H20.5846C19.644 14.6008 18.9005 14.2344 18.2734 13.6064C17.7718 13.1093 17.306 12.5772 16.8223 12.0626C16.6252 11.8533 16.4191 11.6527 16.1683 11.4957C15.6756 11.1817 15.2457 11.2776 14.959 11.7835C14.6724 12.2981 14.6007 12.8651 14.5738 13.432C14.538 14.2606 14.2782 14.4874 13.4182 14.5223C11.5819 14.6095 9.84402 14.3391 8.22263 13.432C6.79832 12.6383 5.68753 11.5131 4.72903 10.2484C2.85682 7.77129 1.41459 5.05868 0.124648 2.25885C-0.162006 1.63086 0.0440264 1.29069 0.760662 1.28197C1.94311 1.2558 3.12556 1.26452 4.31697 1.28197C4.80069 1.29069 5.11422 1.56108 5.30234 1.99719C5.94731 3.5323 6.72665 4.98891 7.71203 6.34957C7.97181 6.70718 8.24055 7.07351 8.62574 7.32646C9.04676 7.60557 9.36925 7.51835 9.56632 7.05607C9.69173 6.76824 9.74548 6.45424 9.77235 6.14024C9.86193 5.07613 9.87985 4.01202 9.70965 2.94791C9.61111 2.28502 9.22592 1.85763 8.54512 1.7268C8.19576 1.66574 8.2495 1.53491 8.4197 1.34302C8.71532 1.01158 8.98406 0.802246 9.53049 0.802246H13.6332C14.2782 0.924357 14.4215 1.21219 14.5111 1.84019V6.27979C14.5021 6.52402 14.6365 7.24796 15.0934 7.41368C15.4517 7.52707 15.6936 7.24796 15.9085 7.02118C16.8939 6.00941 17.5926 4.80574 18.2197 3.56719C18.4974 3.01769 18.7393 2.45074 18.9722 1.8838C19.1424 1.46513 19.4111 1.2558 19.9038 1.26452H23.8542C23.9707 1.26452 24.0871 1.26452 24.2036 1.28197C24.8665 1.39536 25.0546 1.67447 24.8486 2.30247C24.5261 3.2968 23.8901 4.12541 23.2809 4.95402C22.618 5.84368 21.9193 6.69846 21.2654 7.58813C20.6563 8.41674 20.71 8.82668 21.4535 9.53318Z" fill="#7A7A7A"/>
</svg>
